<?xml version="1.0" encoding="UTF-8"?>
<svg id="Layer_1" xmlns="http://www.w3.org/2000/svg" version="1.1" viewBox="0 0 2880 231.81">
  <!-- Generator: Adobe Illustrator 30.1.0, SVG Export Plug-In . SVG Version: 2.1.1 Build 136)  -->
  <defs>
    <style>
      .st0 {
        fill: #050505;
      }
    </style>
  </defs>
  <path class="st0" d="M423.96,171.18c-.81-2.01-5.83-1.82-7.64-3.31.29,1.26-1.43,1.47-1.27,2.65,3.67,1.01,3.98-.03,8.9.66Z"/>
  <path class="st0" d="M406.14,155.32c.95-2.04-4.39-.81-2.54-3.31-8.01-.12-.23,5.23,2.54,3.31Z"/>
  <path class="st0" d="M942.01,150.69c0,.66-1.04.78-1.28,1.32,1.76-.03,2.81.31,3.82.67v-1.99h-2.53Z"/>
  <path class="st0" d="M2174.1,149.36v-1.32h-2.54v1.32h2.54Z"/>
  <path class="st0" d="M975.09,146.72c2.42-.15,2.82.75,5.1.66,2.04-1.84-5.5-1.82-5.1-.66Z"/>
  <path class="st0" d="M901.27,143.42c3.48-1.07-1.85-2.22-2.55-.66,1.28,0,1.52.53,2.55.66Z"/>
  <path class="st0" d="M2174.1,139.44c-.2-2.07,7.59.06,11.46-1.32.18-5.49-10.03-3.51-15.27-1.98-.6,2.08,1.59,2.7,3.82,3.3Z"/>
  <path class="st0" d="M2744.33,138.79c.11-2.16.66-4.06,2.55-5.3-4.29-2.8-3.44-4.75-1.27-8.58-3.89.47-3.74-1.14-7.63-.67-2.77,6.5-1.07,11.08,6.36,14.55Z"/>
  <path class="st0" d="M510.52,137.46c2.89.19,4.78-.16,5.09-1.32-1.49-.11-1.38-1.05-1.27-1.98-3.58-.09-3.67,1.62-3.82,3.3Z"/>
  <path class="st0" d="M343.78,134.82c-.12,2.04,3.85,1.97,7.64,1.99.74-2.37-3.77-2.01-7.64-1.99Z"/>
  <path class="st0" d="M496.51,134.16c-1.09-3.41-3.74-5.98-6.37-8.59l-1.91-.34c-.58-.69-1.2-1.26-1.9-1.65h2.55c-2.06-3.92-2.01-4.25,0-7.93-4.98-.6-7.93-.81-11.45.66,1.92,3.41,3.97,6.76,8.91,8.61-5.89,1.71-17.21.57-20.36-1.33-.93,5.33,2.76,8.26,5.09,11.9,9.09,1.68,16.82-.81,25.46-1.33Z"/>
  <path class="st0" d="M878.36,132.17c-.76-1.18,3.73-2.75,0-3.3-.73.39-2.98,3.12,0,3.3Z"/>
  <path class="st0" d="M2174.1,131.51c-.01-1.75.71-3.89-2.54-3.97,1.66,2.04-1,2.57,2.54,3.97Z"/>
  <path class="st0" d="M2096.45,128.88c-1.45-2.09,2.01-1.62,2.55-2.66-1.62-.9-6.23-1.02-6.37.67,4.52-1.03.77,2.25,3.82,1.99Z"/>
  <path class="st0" d="M936.91,127.54c1.18-1.15,3.99-1.46,7.64-1.33.74-3.58,3.33-6.2,6.37-8.59-9.14-1.1-11.61,1.44-20.36,1.99-.1,3.78,2.63,6.12,6.35,7.93Z"/>
  <path class="st0" d="M339.96,126.22h-2.55v1.33h2.55v-1.33Z"/>
  <path class="st0" d="M254.68,125.57c4.83-.36,6.07-2.58,7.64-4.63-5.88-.25-5.5-3.76-12.74-3.31-1.6,4.84,5.51,2.82,5.1,7.94Z"/>
  <path class="st0" d="M898.72,124.91v-1.99h-2.54c0,.66-1.03.78-1.28,1.32,1.64.03,1.76.84,3.82.67Z"/>
  <path class="st0" d="M845.26,120.27c-1.86,1.06-2.62,5.25,2.56,4.64.2-2.1.05-4-2.56-4.64Z"/>
  <path class="st0" d="M345.05,124.91c2.44-2.27,9.92-1.91,10.19-5.3-6.71.26-14.15.14-17.82,1.98,6.26.65,2.36,2.65,7.63,3.32Z"/>
  <path class="st0" d="M2211.01,124.24c3.87-2.22-4.7-2,0,0h0Z"/>
  <path class="st0" d="M2076.09,121.6c5.31,2.19,10.78-3.55,5.09-5.29l-1.91.33-1.92-.33c-1.96.97-1.11,3.39-1.27,5.29Z"/>
  <path class="st0" d="M911.46,121.6c.01-.88,2.22-.6,2.54-1.33-1.47-1.61-5.99.74-2.54,1.33Z"/>
  <path class="st0" d="M849.08,111.02c-2.73.39-4,4.91-1.27,5.96l1.91-.34.65.99c4.05-3.18,5.45-7.74,15.27-7.93-1.86-.58-4.94-.53-3.82-2.64-7.53,1.31-15.13-2.28-16.56,0,2.05.92,3.26,2.28,3.82,3.96Z"/>
  <path class="st0" d="M366.69,117.63c-2.43.28-5.47.25-5.08,1.99,2.43-.28,5.47-.24,5.08-1.99Z"/>
  <path class="st0" d="M2155.01,118.96c-.95-2.05,4.39-.81,2.54-3.31-2.39-.15-2.8.74-5.09.66.18,1.23.84,2.22,2.55,2.66Z"/>
  <path class="st0" d="M670.9,118.96c.87-1.78-2.64-1.28-3.83-1.98-.87,1.77,2.63,1.27,3.83,1.98Z"/>
  <path class="st0" d="M929.27,118.29c7.68.69,9.66-1.59,11.46-3.96-4-1.34-10.38-1.81-14,0-.62,2.08,3.9,1.49,2.54,3.96Z"/>
  <path class="st0" d="M245.77,115.65c.52-.83,1.65-1.35,3.81-1.32-.43-1.54-.82-3.1-5.08-2.65,2.45,1.65-1.94,2.72,1.27,3.97Z"/>
  <path class="st0" d="M2358.66,114.33s-4.3-.41-3.81-.66c-3.06,1.58,4.17,1.71,3.81.66Z"/>
  <path class="st0" d="M2256.84,111.02c-.06-2.84-4.69-3.3-10.19-3.31-2.6,1.07-2.94,3.31-2.54,5.95,5.92,1.01,10.65,0,12.73-2.64Z"/>
  <path class="st0" d="M2344.66,112.34c-2.4.15-2.8-.74-5.08-.66-.34,1.93,4.94,2.54,5.08.66Z"/>
  <path class="st0" d="M313.23,113.66c2.19.04,3.26-.52,3.81-1.33-2.19-.04-3.27.51-3.81,1.33Z"/>
  <path class="st0" d="M921.63,111.02c-3.19.55-10.95-1.28-10.17,1.32,2.71,1.79,8.45-.41,10.17-1.32Z"/>
  <path class="st0" d="M740.9,113c3.12-2.75-6.27-5.67-11.46-3.96l.65.99.63.99c2.44,1.16,6.64,1.4,10.19,1.98Z"/>
  <path class="st0" d="M724.35,110.36v-1.32h2.54c-.18-2.59-5.71-1.93-8.9-1.32-.18,2.08,3.26,2.27,6.36,2.65Z"/>
  <path class="st0" d="M1980.64,104.4c14.49,1.73,19.01,8.63,39.46,7.28.01-2.77-2.68-3.73-6.37-5.29-4.84-2.06-9.54-2.27-13.99-3.97-.94-.36-3.12-1.58-3.82-1.99-1.6-.9-1.77-2.28-3.82-3.3-5.56.24-7.88-1.2-10.19-2.65-3.59-.54-3.29.93-6.36.67l-1.64.85-2.18.47c3.05,2.6,7.08,4.69,8.92,7.92Z"/>
  <path class="st0" d="M282.68,110.36v-1.32h-2.55v1.32h2.55Z"/>
  <path class="st0" d="M1676.42,109.7c.08-.4.2-.79,1.27-.66v-1.32c-3.14-1.03-3.74,2.24-1.27,1.99Z"/>
  <path class="st0" d="M2288.65,107.71c.71-1.38,1.99-1.4,3.82-.66,1.4-2.58-7.58-2.65-7.64-.66,2.51-.2,2.53.89,3.82,1.32Z"/>
  <path class="st0" d="M935.65,107.06c-.1-1.15.28-2.06,1.26-2.65-3.24.09-4.93.97-5.09,2.65h3.83Z"/>
  <path class="st0" d="M2545.77,103.09c3.8-2.03,2.85-5.9-1.28-7.27-2.2-.06-3.96.14-5.09.66v1.32h-2.55c3.15,2.6,9.97,1.94,8.91,5.29Z"/>
  <path class="st0" d="M1787.15,100.44c-.87,1.78,2.64,1.27,3.83,1.99.76-1.71-.52-2.38-3.83-1.99Z"/>
  <path class="st0" d="M674.71,98.45c-.23.78-2.01.73-3.82.67v3.3c5.96.55,8.08-2.82,3.82-3.97Z"/>
  <path class="st0" d="M689.99,101.76c1-2.54-6.09-2.54-5.1,0h5.1Z"/>
  <path class="st0" d="M441.78,99.78c-1.26-.58-11.01-1.84-10.18.66,3.18,1.29,9.19,1.88,10.18-.66Z"/>
  <path class="st0" d="M934.37,98.45c-.41.9-1.83,1.27-1.28,2.65h3.81c.36-1.51-.3-2.49-2.53-2.65Z"/>
  <path class="st0" d="M225.4,97.14c-3.73.05-7.17.24-6.36,2.64,4.76.5,6.19-.74,6.36-2.64Z"/>
  <path class="st0" d="M2362.48,98.45c-.13-1.69-.73-3.15-2.55-3.96-.74,2.48-8.72,1.2-7.64,4.63,3.66-.08,8.33.35,10.19-.67Z"/>
  <path class="st0" d="M1910.62,93.83c-5.31.11-4.77,3.25-6.36,5.3,4.85-.34,6.48-2.37,6.36-5.3Z"/>
  <path class="st0" d="M632.72,83.92c2.43,2.7,8.47,3.52,10.16,6.6-5.42,1.44-2.41,3.95-3.81,6.62,10.45.8,14.76-1.59,20.37-3.31.78-5.03-4.2-7.07-7.64-9.91-.6-5.3-8.8-9.86-17.82-8.6.4,1.77,4.17,6.38-1.26,8.6Z"/>
  <path class="st0" d="M598.35,95.16c-.18.78-2.27,1.5,0,1.98.18-.78,2.26-1.5,0-1.98Z"/>
  <path class="st0" d="M1897.9,94.49c-.06-.91.6-1.45,1.27-1.98h-3.81c.11,1.04-.17,2.3,2.54,1.98Z"/>
  <path class="st0" d="M599.62,91.19c-4.06.57-3.94-1.05-6.37-1.33-1.51,1.97,5.37,2.85,6.37,1.33Z"/>
  <path class="st0" d="M1920.81,90.52c-2.4.16-2.81-.75-5.09-.66-2.04,1.84,5.5,1.83,5.09.66Z"/>
  <path class="st0" d="M1797.34,90.52c.35-1.5-.3-2.48-2.54-2.64.29,1.17-1.29,3.3,2.54,2.64Z"/>
  <path class="st0" d="M831.28,85.9h-5.11c-2.31,1.72.55,2-1.27,3.97,4.34-.16,6.61-1.41,6.37-3.97Z"/>
  <path class="st0" d="M2270.84,88.54h3.82c-.2-.78.23-1.87-1.28-1.98-.31.94-2.1,1.12-2.54,1.98Z"/>
  <path class="st0" d="M1600.06,86.56c5.14,2.33,2.99-2.12,0,0h0Z"/>
  <path class="st0" d="M939.46,85.24c.2-2.42-3.87-6.76-11.46-4.63.53,3.36,5.26,6.19,11.46,4.63Z"/>
  <path class="st0" d="M1229.67,83.25c.14.81.38,1.57,2.55,1.32-.2-.77.21-1.88-1.28-1.98-.07.41-.19.79-1.27.66Z"/>
  <path class="st0" d="M2064.64,83.25c5.14,2.32,3-2.13,0,0h0Z"/>
  <path class="st0" d="M1378.58,83.92c-.19-.78.22-1.88-1.27-1.99-.12,1.04-3.25.52-2.56,1.99h3.82Z"/>
  <path class="st0" d="M1187.66,83.92c2.36-.1,4.25-.44,5.08-1.33-2.24.15-6.36-.66-5.08,1.33Z"/>
  <path class="st0" d="M2054.45,80.61c.33-1.78,4.58,3.21,6.38.67.52-1.79-10.33-3.02-6.38-.67Z"/>
  <path class="st0" d="M762.54,80.61c-.18-1.23-.85-2.2-2.55-2.65-.55,1.26-2.74,1.67-2.55,3.31,2.41.15,2.81-.75,5.1-.67Z"/>
  <path class="st0" d="M1393.86,79.95c-1.05-1.86,1.79-1.71,1.27-3.3h-3.82c-.19,1.64.66,2.74,2.55,3.3Z"/>
  <path class="st0" d="M276.31,77.96c-.14-1.45-5.4-.27-7.63-.65-1.99,2.27,8.54,3.14,7.63.65Z"/>
  <path class="st0" d="M285.24,74.66l.62-.99,1.9.34c-2.92-4.21-4.13-9.32-12.72-10.58-6.23,4.81-27.07-1.56-29.28,4.62,9.09,1.88,17.95,3.9,25.46,6.61,4.67-.45,9.68-1.14,14.01,0Z"/>
  <path class="st0" d="M1033.65,75.98h-2.55v1.33h2.55v-1.33Z"/>
  <path class="st0" d="M1583.51,75.32c7.63,3.76,14.56-2.35,8.9-5.94-4.25-.02-5.26,1.67-7.64,2.64,5.1.74.86,2.62-1.26,3.3Z"/>
  <path class="st0" d="M1186.39,75.98c3.59-.55,3.3.93,6.35.66,1.24-2.43-6.24-2.63-6.35-.66Z"/>
  <path class="st0" d="M829.98,75.98c.15-2.14,5.78-1.41,3.82-4.62h-5.09c1.73,2-4.74,4.51,1.27,4.62Z"/>
  <path class="st0" d="M1177.47,66.73v-1.32h-7.63c.7.96-1.49,3.42,1.28,3.29.02,1.98-.12,4.03,3.82,3.97,4.31-.28,1.46-3.53,0-4.63.01-1.85,3.48,1.57,2.53-1.32Z"/>
  <path class="st0" d="M1047.64,71.36v-1.98c-3.7-.98-3.7,2.95,0,1.98Z"/>
  <path class="st0" d="M1182.57,63.42c-6.42,2.65,4.44,3.09,0,0h0Z"/>
  <path class="st0" d="M2261.92,64.08c7.25,1.05,10.55,1.25,16.55-.66-5.09-1.55-6.41-5.05-16.55-3.97.62,1.51,2.53,3.37,0,4.63Z"/>
  <path class="st0" d="M2241.56,64.74c.4-.89,1.82-1.26,1.27-2.65h-3.83c.29,1.17-1.27,3.31,2.55,2.65Z"/>
  <path class="st0" d="M1462.59,64.08c.33-.4-.53-1.39-1.28-1.32-1.14.11-.65,3.65,1.28,1.32Z"/>
  <path class="st0" d="M1090.93,60.77c.83-1.76,3.65-2.51,5.09-3.96l-1.9-.77.64-1.21c-4.68-.29-14.08,1.08-15.27,4.63l2.26-.24,1.55.9c3.89-.48,4.63.68,7.63.66Z"/>
  <path class="st0" d="M944.55,62.1c-2.19-.03-3.26.52-3.82,1.33,2.18.03,3.26-.51,3.82-1.33Z"/>
  <path class="st0" d="M1465.14,62.1c.21-.77,2-.72,3.81-.65-.7-.96,1.49-3.43-1.28-3.31-1.54.59-5.5,3.23-2.54,3.96Z"/>
  <path class="st0" d="M1579.69,33.01c-.9,4.8,4.73,9.25,1.27,13.23,4.97,2.48,5.33,7.37,7.63,11.24,4-.32,3.36,1.77,6.37,1.98,4.14-2.83,1.33-5.38-1.28-7.93,1.07-1.88,5.01-2.26,7.64-3.31-3.39-.66-4.19-2.66-6.36-3.96,2.44-2.04,6.33-3.33,6.36-6.61-7.69-2.12-16.17-12.38-25.45-7.27,4.1-.59,1.78,2.15,3.81,2.64Z"/>
  <path class="st0" d="M1251.31,55.49c-.35,1.36-5.64.16-5.1,1.99,3.71-.17,4.4,1.24,6.36,1.98.28-.51,1.07-.77,2.55-.67-.16-1.68-2.35-2.3-3.82-3.29Z"/>
  <path class="st0" d="M836.36,58.79c-.54-1.26-.46-2.84-3.82-2.63.53,1.26.46,2.84,3.82,2.63Z"/>
  <path class="st0" d="M1281.85,54.17v-1.33c-1.28,0-1.51-.53-2.53-.65.1,1.03-.19,2.29,2.53,1.98Z"/>
  <path class="st0" d="M1737.53,53.51v-1.98c-3.72-.98-3.72,2.95,0,1.98Z"/>
  <path class="st0" d="M968.74,50.2s-4.31-.42-3.82-.66c-3.06,1.58,4.17,1.71,3.82.66Z"/>
  <path class="st0" d="M1130.39,49.54c1.13-1.39,3.87-1.96,3.81-3.97-3.97-.47-5.97,3.43-3.81,3.97Z"/>
  <path class="st0" d="M1421.86,48.88c4.94.15,7.98-.7,8.92-2.64-2.83-.51-4.97-1.39-8.92-1.33l-.63,1-1.92-.33c-.2,1.65,2,2.05,2.55,3.31Z"/>
  <path class="st0" d="M958.55,44.26c1.82.16,2.15,1.08,3.82,1.32,1.12-1.36-3.29-2.97-3.82-1.32Z"/>
  <path class="st0" d="M845.26,40.94c-3.89.48-3.74-1.14-7.64-.66v5.29h5.11c1.39-1.26,1.62-3.12,2.53-4.63Z"/>
  <path class="st0" d="M1131.65,42.93c-2.89-.18-4.77.16-5.08,1.33,2.37-.09,4.25-.44,5.08-1.33Z"/>
  <path class="st0" d="M1126.56,42.93c1.34-3.83-5.52-.27,0,0h0Z"/>
  <path class="st0" d="M938.19,40.29c1.34-3.84-5.52-.28,0,0h0Z"/>
  <path class="st0" d="M1182.57,36.98c-2.4.3-7.67-.9-6.36,1.32,3.16.1,6.18.12,6.36-1.32Z"/>
  <path class="st0" d="M1256.39,36.98c.78-1.79,5.32-1.65,5.08-3.97-3.6-.54-3.29.94-6.35.67.69.95-1.49,3.42,1.26,3.3Z"/>
  <path class="st0" d="M1270.4,34.33c2.62.59,5.72-1.71,2.54-1.98-.3.95-2.1,1.12-2.54,1.98Z"/>
  <path class="st0" d="M1183.85,25.75c.17-.78,2.27-1.5,0-1.98-.18.78-2.27,1.5,0,1.98Z"/>
  <path class="st0" d="M1232.21,25.08c2.9.18,4.78-.16,5.09-1.32-2.9-.19-4.79.16-5.09,1.32Z"/>
  <path class="st0" d="M1318.76,23.1c1.81-2.11-7.61-1.67-7.64-.66,2.69.87,3.77-.33,7.64.66Z"/>
  <path class="st0" d="M1233.48,21.11c4.35.5,2.11-2.43,5.09-2.64,3.6-.55,3.3.93,6.36.66.76-1.37,2.44-2.25,5.09-2.64,4.39-.07,9.14-.34,10.19,1.33,4.74-2.72,17.94,1.45,21.64-2.65-2.83-1.62-5.93-3.09-7.64-5.28-14.14-.23-20.15-.59-34.36-.67-4.08.75-2.04,4.67-6.37,5.29-1.27-1.98-3.47-3.48-7.63-3.97.02,2.88-3.94,3.69-2.55,7.28,8.41-1.51,5.81,2.71,10.18,3.29Z"/>
  <path class="st0" d="M1332.77,20.45c-1.15-1.82-4.85-2.32-8.91-2.64-1.39,3.15,4.14,2.69,8.91,2.64Z"/>
  <path class="st0" d="M1208.02,5.91c-5.96-.01-12.55-.35-12.72,2.65,2.56.87,4.43,2.11,7.63,2.64.32-2.48,2.96-3.75,5.09-5.29Z"/>
  <path class="st0" d="M2874.15,101.11c.99,3.82-1.85,5.65-1.28,9.25,2.24.32,4.72.69,7.12,1.14v-9.18c-1.97-.39-3.94-.79-5.85-1.21Z"/>
  <path class="st0" d="M2853.78,130.85c-.52-1.59,2.33-1.44,1.28-3.31-1.76-.02-2.8.31-3.82.65l.64,1c-1.03-.31-1.94-.47-2.76-.62l-1.69-.38h1.26c-.73-1.59-4.8-1.46-7.64-1.98-4.01,1.54-1.94,2.8-3.82,4.64l-1.48.99c-.93-.74-2.66-.92-4.25-1.32l-.64-1c.15-.59,2.51-2.45,2.55-2.64.3-1.93-1.49-1.15-2.55-1.97,3.02,2.37-3.87-.68-3.82-.67-6.07-1.7-13.47-.96-15.27-3.3l-.63.99c-.54-.49-.94-.98-1.49-1.23-2.68-.54-4.79.55-4.88,1.89l-.63-.99c-9.41-.8-12.3,1.58-16.54,0l.64.99-1.91.33c-4.69,3.26,5.02,3.74,6.36,5.96l1.28-.34,1.28.34h1.27l-.63-1.49c2.11-.01,4.27-.25,5.34-.7l1.66.86c8.49-1.58,13.96,1.99,15.27,4.63l1.92-.33c-.68.88-.45,1.76,0,2.63l-1.92-.33c-2.33,1-3.77,4.46-1.27,5.95-3.73-.17-3.91,1.49-7.63,1.32-2.82-.95,1.59-1.61-1.28-1.99-9.65,1.7-22.84,7.03-26.73-.65-13.71-.52-11.52,7.24-28,5.28-3.46-1.29-2.93-4.65-8.91-4.63-.59,2.34-2.27,4.11-5.1,5.3-12.74.54-23.13-4.33-22.91-12.56-6.94-2.34-8.11-7.69-17.81-8.59v-1.98c-18.77,1.97-24.18-6.76-39.45-2.64-2.01-.51-1.91-2.1-5.1-1.98-6.69-.02-8.4,1.52-17.82,1.31-.37.84-1.55,1.24-1.3,2.41l-5.7.24.63-.67c-1.67-.67-4.69-.64-6.37-1.31-2.67,3.67-11.14,4.35-17.81,5.95v-.67l-1.92.33.64-.99c-7.16-.67-8.5-2.39-3.81-4.62-1.44-.8-3.63-1.2-2.55-3.31-3.83.18-9.24-2.19-10.18-1.32,1.2,3.11-8.49-1.74-6.37,1.98-7.29-1.07-11.24-3.85-20.37-3.97-3.01-3.94-11.09-5.25-16.55-7.93,1.82,2.92-.57,4.15,0,7.93-3.29.71-6.23,1.62-11.45,1.33-.07-.41-.2-.79-1.27-.66l-.65,1-1.91-.33c-.43,2.42-.14,5.22-5.08,5.3-2.89-.49-3.81-2-5.1-3.31.4-.9,1.81-1.26,1.28-2.65-8.94-4.54-24.98-6.12-28.01-11.89h-5.08c-6.65-6.35-18.98-6.2-30.55-9.26.45,2.99,2.12,5.7-2.55,7.28-11.94-1.18-19.36-3.13-25.46-5.95-4.63,1.14-9.56.7-11.45-1.99-5.98.2-7.5,2.72-15.28,1.99-.4-.9-1.82-1.27-1.27-2.65-9.88-.09-16.69-2.78-21.64,1.32-2.05-.75-4.03-2.59-6.36-1.32-.04,2.23,1.76,3.5,3.82,4.64,1.28-.92,2.1.27,3.82-1.33,1.75,2.84,10.67,1.95,12.73,4.62,1.85,4.79,14.01,6.95,20.37,7.28,1.05,1.86-1.8,1.71-1.28,3.3,4.23.44,7.77,1.25,8.91,3.3-2.23,10.44-25.33,3.18-36.91,3.31l.64-.99c-1.06.41-1.47,1.21-1.27,1.98l-.64-.99c-7.59,1.96-16.75,4.86-26.73,1.98-1.9.99-2.27,2.79-5.09,3.31,1.65-2.53-5.61-2.31-10.19-1.32,1.34-4.31-7.96-10.18-20.35-7.28v3.97c-8.58,1.01-9.38-2.03-15.27-3.3-1.42-.3-2.9,1.61-5.1,1.33-3.01-.37-1.12-3.07-5.09-1.99-1.48,4.52-5.36,7.79-7.63,11.9,4.6.91,9.23,1.82,10.18,4.64-3.98.79-5.54,2.84-10.18,3.3-1.52-1.64-7.81-.8-6.37-3.98-6.34-.14-11.8-2-19.1,0-2.52-3.57-5.46-8.46-1.27-11.9-5.8-.7-14.03,1.59-20.37,2.66-3.57-1.46-4.39-4.33-12.72-3.31-6.91,5.87,5.8,10.41,10.19,14.54-2.76.55-4.35,1.71-8.91,1.32l.64.66-.64.66c-7.86,4.07-15.2,1.2-26.73,1.98-6.04,3.91-8.69,9.59-19.09,11.24l.63,1.22-1.9.77v.67c-.95,1.05-6.23-.16-5.09,1.98-.62,2.29,3.19,2.3,5.09,3.3-.36,1.36-3.4,1.32-5.09,1.98-5.22-1.8-12.71-8.05-19.1-3.29-2.96-2.02-.41-5.61,1.27-7.28-12.24-3.18-3.85-10.41-11.45-14.54,3.35.2,3.29-1.38,3.81-2.65-1.72-.2-2.42-.93-5.09-.65l-.64.99c-.85-.51-1.55-1.01-2.54-.99l.64-.66c1.08-2.1-2-2.04-2.55-3.3-5,.05-9.56.31-12.73,1.33l1.91.77-.64,1.21c1.28,0,1.52.53,2.56.66-.13,1.04-3.25.52-2.56,1.98h-2.54l.64.66-.64.67c3.38,1.58-1.87,4.28-3.81,5.28,1.89.56,1.83,2.13,2.54,3.3-5.82-1.84-5.2,2.22-10.18,2.65-3.44-1.74-7.58-3.11-12.73-3.97,1.07-.78,1.68-1.77,1.27-3.31-4.99-.49-6.84-2.61-8.9-4.63-3.93.16-7.2.68-10.19,1.32,8.71,8.39-4.33,16.91-17.81,10.58,3-3.57-3.2-3.33-2.55-7.27,1.75.03,2.79-.31,3.82-.66l-.64-.66c1.27-.08,2.55-.09,3.83-.33l.63.99c3.47-1.06,8-1.57,7.64-4.63-8.75-1.27-15.16-2.26-16.55-5.95-6.74-1.13-10.47-3.82-13.99-6.61-10.56,3.84-18.46-1.91-24.19-4.64,1.56,2.87,1.08,3.32-3.83,3.97,2.07,3.67,3.01,7.42-2.54,9.91-6.14-1.79-7.29,2.18-14,1.98,3.34,5.84-13.75,5.24-19.1,8.61-.56-2.12-1.79-3.24-3.82-1.32.9-2.45-4.46-1.66-6.36-2.65-11.14,4.01-23.58-2.63-35.64-.66-3.57-2.33-6.08-5.22-12.73-5.96-7.14,2.46-4.87,9.81-13.99,11.24-6.21.58-5.91-2.22-10.19-2.64-4.56,4.02-18.53,3.15-24.18,6.61-1.41-1.69-6.84-1.29-11.45-1.32-3.8-2.88-5.55-6.82-12.74-7.93-2.72-2-2.52-5.61-1.27-6.61,1.08.98,4.1.95,6.36,1.32-.6-2.08,3.43-1.75,3.82-3.3,10.02.19,23.08-3.27,28,3.3,11.86.72,18.67.37,25.46-2.64-4.92.14-3.04-3.27-5.09-4.62-11.86,1.08-21.2-1.89-21.64-8.6,1.27,0,1.51-.54,2.54-.66,3.6-.55,3.31.93,6.36.66l-.45-1.18,1.73-.8c-.31-.95-2.1-1.11-2.55-1.98,1.13-1.18,3.55-1.68,2.55-3.97-1.5-.33-2.89-.7-3.82-1.33-6.3-.85-6.25,1.61-11.45,1.33-2.81-.53-5.08-1.33-5.09-3.31.43-2.2,4.81-2.34,6.36-3.96-2.16-1.74-9.75-.68-12.72-1.99,1.85-2.78,6.84-3.93,6.36-7.93l-1.92.33-.63-.99h-5.1c-5.73-2.32-9.55-5.61-12.73-9.26,1.64-1.13,2.64-2.6,6.37-2.65-5.08-4.08,8.74-6.07,5.09-9.25-.24.98-3.08.6-5.09.66-1.98-3.6-6.16-6.06-7.63-9.92-5.98-.21-6.29-3.34-12.73-3.3-1.66,6.33-7.68,13.41-20.36,11.89,6.02,1.23-2.29.99-1.28,3.3,4.96,4.26,9.24,8.87,7.64,16.52-5.09,3.3-14.84,4.18-25.45,4.63.51,4.44-4.86,5.84-3.81,10.57,3.25.08,4.45,1.22,6.36,1.99-3.95,4.95,1.55,13.38,6.35,17.85-4.79-.29-5.97,1.31-8.9,1.98-.39,2,1.42,5.15-2.55,5.3-9.2-1.02-14.5-6.31-8.9-11.24-2.37-.09-4.26-.44-5.09-1.33,3.57-1.14,1.2-1.73,1.28-3.96-4.6-.63-9.11-2.03-6.36-4.63-5.2-.17-11.28,1.35-11.46,3.31-9.27-3.52-26.81-1.49-21.63,5.95-9.26,8.64-7.72,22.87-26.73,26.44,2.65,4.29,3.16,5.75,7.64,9.25-3.8.89-3.14,4.11-8.91,3.97-6.58-1.43-7.24-5.93-11.46-8.59,5.88-2.16,4.52-6.78,2.54-9.92l-1.9.33.64-.99c-5.47-.33-5.47-7.61,0-7.94,4.34,1.21,6.12-.08,11.46,0,.8-4.2,5.17-6.56,7.64-9.91-3.2-1.49-5.15-4.65-3.82-6.6,4.76-.17,8.18-1.04,10.17-2.64-5.17-1.72-5.35-6.03-8.91-8.6,5.89-1.97,3.29-5.2,8.91-7.93-10.11.86-7.66-4.82-16.55-4.63l-.62,1-1.91.33c-.99,4.2-1.7,8.75-3.82,11.23-2.77.43-4.05-1.87-3.81.67.12,2.14,5.77,1.41,3.81,4.62-10.61.87-13.45,5.8-20.36,8.59-.79,7.02,3.78,11.25,3.81,17.85-2.67,1.26-6.53,1.9-10.18,2.65-6.37-1.11-9.96-3.64-14-5.95l-1.55.9-.63-1.13c-.54-1.4-.45-2.85-2.28-4.07l1.9.33c5.05-8.53-9.39-12.07-15.27-18.51l-1.9-.77.63-1.21c-7.05-2.46-.65-4.26-2.55-7.94-2.23-4.32-9.68-6.6-13.99-11.24-4.8.5-6.1-.8-10.19-.66-1,2.77-4.96,2.04-2.55,5.3-2.38-.53-4.67-1.11-7.64-1.33-6.89,2.55-10.49,12.52-21.65,8.6,1.88-5.83-12.95-6.98-5.09-11.9l-1.9-.33.64-1c-8.18,2.37-10.93,7.55-11.46,13.89l2.33-.34-4.24,2.86.63-1.21c-8.64-.51-13.74,1-16.55-1.98,1.89-.79,5.69-.57,5.1-2.65-1.78-.85-.79-3.12-2.55-3.97-3.92-.02-9.02,1.94-8.91-1.31-.62-2.08,5.83-.5,6.36-1.98-1.57-.78-6.29-3.28-2.55-4.63,2.54.01,1.62,1.8,5.1,1.32l-.46-1.17,1.73-.81c-.3-.94-2.1-1.12-2.55-1.99,1.81-.16,2.14-1.09,3.82-1.32l-.64-1,.64-.99c.28-1.25-1.44-1.46-1.28-2.64l-2.34.33-1.48-.99c-9.19,6.08-11.26-6.3-20.36-6.62,1.26-2.64-3.81-1.99-2.55-4.63-4.64-.98-10.26,1-15.27-.66-1.71,2.41-7.47,3.99-3.81,7.27-2.25,2.32-6.03,2.82-3.82,5.95-4.78.17-6.15,2.1-10.19,2.64-9.56-2.11-14.34-4.1-16.54-8.59-.38-.76,2.53-.56,2.54-.66.12-1.59-4.81-5.36-2.54-7.93-2.22.05-3.96-.15-5.09-.65-2.97,4.27-1.94,6.53-10.19,7.93-.48,3.5-1.28,6.82-7.63,7.26,1.59,2.21,7.84,2.84,2.55,5.29-6.41.91-.77-4.45-7.64-3.3-1.62,3.71-2.52,5.18-11.45,3.96-1.73,1.31-1.22,3.79-2.55,5.3l.64.65-.64.67h3.83c1.05,1.86-1.79,1.71-1.27,3.3,7.75,2.55,4.57,10.46-3.82,11.9-3.53-1.41,2.35-3.59-2.55-3.96-1.15,1.17-2.85,2.04-5.08,2.64-6.64-2.28-10.2-6.17-14.01-9.92-5.56-1.08-11.26.65-15.27-1.98-3.97-4.05,6.32-5.83,2.54-9.92,5.92-1.25,15.23-5.84,20.37-3.31-.32,2.25-3.21,3.18-2.54,5.95,4.63.21,8.29-.11,11.45-.65,2.21-3.42,3.13-5.94,0-9.26,6.37-6.31-9.58-10.33-10.17-17.2-6.43.41-3.29,5.79-11.47,5.29-5.46-.68-3.17-5.41-6.36-7.28-11.02,1.58-14.07,6.48-10.18,12.57,5.55-1.61,9.69.41,10.18,3.3-6.87,4.81-8.23,12.47-17.83,15.86-9.87-2.82-9.64,3.86-15.27,5.3l.64.65c-1.69-.04-3.4.06-5.09.33l.63-.99c-5.82-2.49-9.02-6.34-10.18-11.24.78-.04,1.51-.1,1.27-.66l-1.91-.77.64-1.21c-5.04-.25-7.35-1.92-8.92-3.96,7.5-5.8-4.62-7.79-2.53-14.55-2.94-.68-4.11-2.28-8.92-1.98l.64.99c-.89-.48-2.26-.88-3.81-1.33l1.9-.34c-14.39-2.34-1.23-9.68-3.81-14.54-6.87.41-5.47,5.1-11.46,5.96-3-.21-2.37-2.29-6.37-1.99-1.17,1.16-2.36,2.31-6.36,1.99,4.26,2.77.72,6.39,2.54,9.91,1.4,2.71,8.44,5.09,3.82,7.93,9.57,1.97-2.07,7.37,7.64,9.26-5.15-.92-4.02,1.43-7.64,1.31-5.34-1.19-11.1-3.4-13.99-1.31,3.31-.4,4.59.26,3.82,1.97-5.76,3.57-13.35,2.02-22.91,1.32,3.84,3.18-4.86,2.4-2.55,6.62,2.05.91,6.56.56,7.63,1.98-.34,1.37-5.64.16-5.09,1.99,9.82,2.92,2.5,9.92-5.11,12.56.21-3.42-7.47-2.73-7.63-5.96,5.83-2.46,4.11-2.67,5.1-6.6-1.51-.33-2.89-.7-3.82-1.32,1.21-4.39-5.06-9.44,7.64-10.58,2.15-2.92-1.2-6.8,0-11.24-.99-.14-2.52-.01-2.55-.65-6.1.63-7.65,5.45-8.91,6.6-5.16.91-4.02-1.43-7.64-1.32l-1.49.99-2.32-.33c-2.51,2.37.57,3.53,0,6.61-2.27.59-3.25,1.84-7.64,1.32-2.89-.48-2.8-2.52-6.37-2.64-3.88,2.84-6.08,6.55-12.72,7.93,0,2.21,4.13,2.26,3.82,4.63-2.08,1.57-5.06,2.66-7.64,3.96-2.25-.6-3.72-1.6-6.36-1.98-2.79,2.07-6.57,3.64-11.46,4.62-.38-1.34-3.44-1.29-3.82-2.64l-1.92-.33-.63-.99c-1.82.15-2.15,1.09-3.82,1.32-4.4-1.02-6.31-3.34-12.73-3.31-2.92.24-1.21,2.9-5.08,2.64.3-5.23-11.74-4.03-14.01-7.93,4.03-2.97,3.39-4.83-1.26-7.27-1.23,1.35-4.9,1.43-8.92,1.32-2.87-2.77.24-5.32,0-8.59l-1.91.34,6.37-4.63-.64.99c9.51-.05,22.51-6.12,12.74-9.92-.04,2.4-3.74,2.91-8.92,2.65.06-.92-.59-1.46-1.27-1.98.33-2.03,2.76-2.97,3.81-4.63l-1.9-.33.64-.99c-3,.21-4.79,1.04-8.92.66,1.16,4.13-6.26,3.79-11.46,4.62l.64.99-1.92.33c.93,1.8-2.53,1.33-2.54,2.65l1.9.33c-2.39.17-2.47,1.16-2.71,2.12l-2.36,1.85.63-.99c-4.57-.17-4.66,1.98-8.91,1.98.59-3.82-.05-7.02-6.35-7.27-9.32,1.48-5.33,5.2-6.37,8.6-.18.58-3.22,3.51-3.82,3.96-4.43,3.32-14.92,5.85-19.09,9.26-2.89-.91-4.92-2.28-7.63-3.31v-2.64l-1.65-.85-.9-1.13c-1.27.74-6.93,2.48-8.9.68v-.68l-2.34.34-1.48-.99c-3.5.83-3.59,3.42-8.91,3.31v-2.66l-2.34.34-1.48-.99c-8.97.88-3.41,6.16-7.64,8.59l.63.99-.63.99c5.55,1.5,3.35,7.02,1.28,10.58l1.9.33c-2.12.43-3.27.52-5.09,1.32l.63-.99c-1.62-.04-1.75-.85-3.81-.65l-.63.99-1.91-.34c.05.92-.61,1.46-1.29,1.98-3.09,1.28-7.68-.89-11.45-1.32-.12-2.7-.25-5.41,1.27-7.27l-1.91.33.63-.99c-1.48-.55-3.41-.87-6.36-.66,1.67,3.08-4.22,2.22-2.55,5.3-5.19,1.94-8.01,6.32-11.46,7.26-1.12,2.12,3.3,1.38,3.83,2.65-2.95-.21-1.43,1.9-3.83,1.99-1.51-.32-2.89-.7-3.81-1.32v-.66l-2.34.32-1.48-.98c-1.83,4.26-15.85-.43-16.55,3.3,3.64,1.2,7.85,2.1,11.46,3.31.67,3.34-2.67,9.76,7.64,10.57-3.32,3.57-5.52,7.71-16.55,7.27-1.49,2.09.79,2.89-1.27,5.28,4.75.3,6.57.11,10.18,1.98l.63-.99.64.99c1.8-.17,1.45-1.44,2.56-1.98l-1.91-.76.62-1.21h-1.27c.38-1.54,3.45-1.54,3.82,0l1.91.77-.64,1.21h2.56c.7,4.34,2.01,6.24-3.82,7.94,4.01.12,4.29,2.17,3.82,4.63-4.94.73-6.52,3.22-11.46,3.97-7.61-.79-3.34-4.23-8.91-5.3-7.15,3.5-8.43,8.76-3.81,14.54-7.47.52-19.34,3.92-20.37-1.32,4.25-1.99,1.46-7.62,5.1-9.92-4.02-2.85-6.09-3.3-11.46-5.95,1.54-1.85,3.86-3.29,10.18-2.64v4.63c4.6-1.14,9.38-2.17,10.19-5.29l-1.91-.33-.64-.99c-2.52,0-1.61,1.8-5.09,1.32-2.55-4.07-.72-6.3-3.82-9.92,2.27-1.25,3.45-3.06,6.37-3.97,3.89-.48,3.75,1.14,7.63.66,2.91-1.48-.52-5.5,3.83-8.59-2.52-1.56-9.27-.92-12.74-1.99-.38,2-3.93,2.37-2.53,5.29-4.01-.31-4.98.94-7.64,1.33.12,4.46-5.97,5.71-5.1,10.58-9.69,2.67-17.34,6.41-28.01,8.58.06.91-.6,1.46-1.26,1.99,7,3.2,1.68,9.75,7.63,12.55,4.31.25,1.99-2.92,7.63-1.99,2.54,1.25,2,2.41,6.36,1.32,3.58-.99-3.23-2.78,0-3.31,1.56,1.18,2.48,2.68,5.1,3.31-2.68.38-3.64,1.64-7.64,1.33,5.27,4.38-3.85,6.73,1.28,9.92-4.84.56-6.13,2.98-12.73,2.64l.63,1.21-1.91.77c1.16,2.4,3.76.4,7.64.65-5.95,1.45-7.23,8.41-15.28,6.62-2.22,6.95-17.1,2.96-22.91,2.64-7.42-5.11.97-9.45-2.54-15.87,2.6-.19,2.5-1.78,5.09-1.98,6.77.77,8.8-.04,12.72-1.99-.77-1.14-6.04.05-6.35-1.32l-1.91-.77.63-1.22c-2-.05-.99-1.68-3.82-1.31-1.99.28-1.08,2.07-5.09,1.31v-1.31l-2.33.32-1.49-.99c-2.22,1.3-5.6,5.43-8.9,3.97.38-1.56,4.41-1.23,3.81-3.3-2.6-1.97-4.55-4.26-3.81-7.94-6.07-1-3.18.54-8.92.66-.61,2.08,3.9,1.5,2.55,3.97-3.84.91-4.54-.31-10.18,0,.34-2.15-1.5-3.18-5.09-3.31-.28.52-1.06.77-2.55.67-3.52.98,2.22,2.7-1.27,3.29-5.11.23-9.32,0-10.19-1.98,1.66-2.22,6.97-2.55,8.92-4.63-.13-1.69-4.97-.94-5.1-2.64,1.82-.17,2.14-1.09,3.82-1.32,2.9,3.12,10.81,3.63,15.27,5.94,2.97-2.02-.02-5.37-1.27-7.27-11.73,1.46-13.88-3.91-25.46-1.32v-2.65c-5.21-.9-11.38,1.52-20.36.67-2.72-9.57-16.73-11.75-12.72-21.82-1.9-.78-5.69-.57-5.1-2.64,2.53-.01,1.62-1.8,5.1-1.32,3.71-.18,3.9,1.49,7.64,1.32.67-2.94,1.24-5.96,2.52-8.59-9.6.51-11.39,5.09-21.62,5.29.43,3.31-4.85,3.65-3.81,7.27.78,1.13,3.83,1.09,5.08,1.98,1.4,2.79,1.46,6.29,1.27,9.92-6.76,1.92-10.37,7.86-3.83,11.23-2.24,3.02-6.3,5.1-6.35,9.26-10.67,4.04-10.26,11.14-8.93,20.49-3.95,1.17-2.7,3.4-3.82,5.29-.06.12-2.46-.12-2.52,0-2.53,4.39,1.46,9.13,1.26,11.9,0-.11-3.81-1.04-2.54.66,1.91,1,5.71,1.01,5.1,3.31-2.51-.21-2.53.89-3.82,1.31-2.51.21-2.53-.89-3.82-1.31-7.82,1.22-3.68,8.67-12.74,9.24-4.54-7.74,3.05-10.64,0-19.16-1.64-1.35-6.16-1.2-5.09-3.96,3.92-.46,2.45-.46,6.37,0-.76-2.38,1.48-3.2,2.53-4.64-3.59.56-3.29-.93-6.36-.65-3.52,1.48-6.1,3.44-14,2.63-1.31-1.51-2.63-3.03-5.09-3.97-4.6-.17-3.46,2.62-7.64,2.65.02-1.56-2.19-1.95-1.28-3.97,6.05-.32,1.93-2.08,7.63-1.98l-.62-.99.62-.99c-2.29-3.88-19.92.21-20.35-4.63,4.76.05,3.85-2.85,10.18-1.99.01-1.75-.71-3.89,2.54-3.97,1.44,2.6-3.83,4.59,1.28,5.29,3.02-4.11,8.28-2.89,11.46-5.29-.73.55-3.75-.42-3.82-.66-.1-.31,6.73-1.96,5.09-3.31.2-2.17-5.69-2.91-2.55-4.63-4.67,0-4.88,2.32-7.64,3.32-1.75-3.59-7.31,1.05-6.36,1.31-6.18-2.68-4.61-7.62,1.27-9.91-1.91-1.36-4.06-4.57,0-5.28-3.88-1.3-6.4-3.3-6.36-6.62-12.38-1.99-16.82,6.66-30.55,5.29-2.71,5.63,12.64,3.44,14,3.31,3.43,4.03-4.05,4.24-3.82,6.61-5.53-.12-2.31-1.15-2.56-3.3-4.09-.74-5.9-2.66-10.17-3.3-.29.51-1.08.76-2.56.66,1.78,2.92.28,5.14-3.81,6.61-5.71-1.79-8.75.38-11.46,1.98-1.41-1.25-1.63-3.12-2.55-4.62,2.43-1.24,2.31.39,6.37,0-.96-3.04-4.52-4.71-7.64-6.61l-1.27.32-1.27-.32c-1.87,4.7-8.49,2.98-12.73,6.61.94-2.27-4.69-1.09-5.08-2.65-1.06-1.87,1.79-1.72,1.26-3.31-13.51-2.67-13.65-14.41-8.9-19.83h-5.11v1.32h-2.52c-8.13-.12-.87,4.1-7.64,3.97-1.95-4.5-5.99-7.92-12.74-9.91-1.17,1.15-2.36,2.29-6.36,1.98,0-.66,1.03-.79,1.26-1.32l-1.9-.33.64-1c-6.31-1.13,1.52-9.59-6.37-9.91-5.08,2.02-10.93,3.21-7.63,7.94-9.51,2.34-16.73,5.86-21.65,10.57-2.36-.09-4.25-.43-5.08-1.32,1.31-3.77-1.6-5.35-6.38-5.95,1.64-1.14,7.62-.01,7.64-1.99-5.77-1.64-12.1-1.78-16.54-4.62-4.07-2.6-3.3-6.63-6.37-9.26-7.38-6.32-21.74-7.44-39.46-10.57-.37,1.35-3.44,1.29-3.82,2.63,6.6,1.2,13.3,2.36,15.28,5.96,1.75.03,2.79-.31,3.81-.66,1.67,3.66,12.62,5.6,7.64,10.58,2.72.79,6.94.81,7.64,2.64-.32,3.56-2.25,6.03,0,9.26l1.91.33-3.81.33.63-.66c-8.04-.72-5.23-3.1-3.81-6.61-9.73-3.77-17.95,1.84-21.65,5.28-3.96.07-3.64-2.08-8.91-1.31l-1.28.32-1.27-.32c-.51,1.72-3.8,1.99-3.81,3.96l1.91-.33c-.4.55-.74,1.18-.85,1.54l3.4,1.76-1.91-.33v3.97c2.88.7,5.6,1.5,7.64,2.64-3.48,3.22,3.74,8.86-2.55,11.24h14.01l1.27.33c0,.58.97,1.08,1.92,1.98l-1.92-.33c-10.7,3.1.28,6.83-7.63,10.58-7.17.46-18.76-1.37-20.36,1.98l.62,1-1.91.33c-.61,2.09,5.84.5,6.37,1.98-.18,6.75-10.24,8.35-16.55,11.91,1.37.83,3.48,4.14,0,6.6-2.33-.99-7.14-.69-8.91-1.99-.62-4.06,2.25-6.3,1.27-10.56-7.15.85-4.69-3.3-5.09-5.96-1.9-.11-4.7.24-5.09-.65l-2.33.32-1.49-.99c-1.88.12-1.15,1.6-1.26,2.65l1.91-.33c-1.7.49-3.4.68-5.09,1.33l.63-1c-.19-1.64-.24-3.21,2.55-3.31l-.64-.99-.64-.99c3.58-8.48,4.49-25.78-21.63-21.15-.09-1.93-4.85-1.45-3.81-3.97-4.09-.57-1.75,2.18-5.1,1.99-2.4-1.18-5.13-2.18-10.17-1.99-3.1,1.32,2.15,2.83-2.56,3.31-2.6-.19-2.49-1.79-5.08-1.98v.66h-1.28c-3.5,1.43,1.27,3.03-1.27,4.63,3.52,1.46,6.46,1.25,11.45.66,4.87,4.83.89,11.07-10.18,7.94-3.08,1.58,3.1,1.74,1.28,4.62-8.51-.67-9.43,2.6-12.74,4.63,1.67,2.89,5.97,1.4,11.45,1.31l.64-.99,1.91.34v-2.64c3.02-1.08,7.36-1.47,11.45-1.99,2.83,2.05,3.69,5.14,5.09,7.94,2.95.21,4.9-.11,6.36-.67l-.64-.99,1.92-.33c-.23-1.45,1.04-2.11,3.81-1.98v2.64h-2.53l.63.99-1.9.34c.61,2.07-3.42,1.74-3.83,3.3-1.34,2.46,4.78,1.04,3.83,3.31-6.08,1.57-8.17-1.85-15.28,0l-.63.99-1.9-.33c1.45,2.63,3.48,3.5,1.26,6.62,5.43.17,10.88.36,11.46-1.98.37,1.35,3.45,1.3,3.81,2.64-2.27,3.68-6.95,5.17-8.9,7.27-1.1,1.17.21,1.84-1.29,2.64-.61.33-2.03-.78-2.53-.66-1.51.38-3.85,3.01-5.1,3.3,1.01-.23-7.81.32-6.35.67-8.98-2.14-1.49-8.91-1.28-10.59-8.09-.3-15.89,4.21-20.36,0,.49-6.99,2.22-13.84,1.27-20.49-3.94-.93-3.35,1.24-7.64-.66l-.63.99-1.91-.33c.65,5.09-11.29,8.58-14.01,12.56-1.69,2.48,1.39,1.52-2.55,3.31-.63.29.51,1.62,0,1.98-2.88,2.09-7.22,1.59-10.17,1.99,1.28,0,1.6,1.15,0,1.32-3.19.11-3.1-1.48-5.1-1.99,3.83.67,2.25-1.47,2.55-2.64-1.72-1.1-3.24-2.28-6.37-2.66-1.43,2.35-2.51,4.87-8.9,4.63,1.78-1.71,4.3-3.04,6.37-4.63-7.05-.74-9.18-4.04-17.82-3.96-1.33,1.87-1.33,2.75,0,4.62-6.25,1.44-13.6-.37-14.02-3.97-5.63-.35-6.15,5.46-10.17,1.98-1.63,1.66.65,2.08-1.28,2.65-2-1.16-5.84-1.37-6.35-3.31,1.28-.88,1.19-2.46,3.82-2.64.18,1.44,3.21,1.42,6.35,1.31,3.73-2.91,3.56-7.85,12.74-7.93-1.3-3.95-6.88-5.68-11.46-7.93,4.13-8.04-1.55-13.88-10.18-19.84l-1.92-.32-.64-.99c-10.74,2.64-1.64,10.39,1.29,13.88-7.78,2.65-10.65-2.21-16.56-2.65l-1.53.9-2.28-.23c1.33,1.87,1.33,2.75,0,4.63h-5.09c-1.02-2.3,1.9-2.54,1.27-4.63l-.63-.99-.65-.99c-2.42.27-3.2,1.41-6.36,1.31,2.41,1.95.12,4.35-3.82,2.65v.65h-1.26v1.32c-5.39.95-13.92.27-19.1,1.32-.1-2.48-.96-5.35,5.09-4.63v-3.31l-1.9.34-.64-.99c-4.42.53-4.9-.98-8.92-.66-2.46-5.55-20.46-3.04-21.64-9.26-6.06-1.04-11.01-2.66-16.54-3.97,1.57-1.42,8.25-3.6,6.36-4.63-1.3,1.47-5.86-.87-10.18,0-3.1,2.97-7.69,5.19-6.37,7.94-5.21.37-6.51,2.78-12.73,2.64-3.38-3.13,4.37-5.46,8.9-6.61.74-2.59-1.1-3.84-2.54-5.29-8.4.04-18.32,5.15-21.64,1.32-1.15-1.32-8.83,1.21-7.63-1.32-1.03-4.06,2.62-5.69,3.81-8.59-1.83-.37-3.11-1.04-3.81-1.99-8.89.45-17.84.87-26.73,1.31-2.7-2.78-.62-8.04-1.27-11.9-3.43.46-2.47-1.36-3.82-1.98.02-1.75-.48-3.77,1.28-4.63-6.8-1.76-2.91-9.06-12.72-9.26-.03,2.8,2.46,4.27,0,6.62,3.99-.1,4.36,1.69,5.09,3.3-3.4,8.27-.07,14.45,0,25.13-3.95,3.02-6,7.01-8.91,10.57,2.22.6,6.35.23,7.63,1.33-1.09,4.85-11.15,1.55-20.36,2.64,2.31,3.55-11.74.99-16.55,2.65.06-.91-.61-1.46-1.27-1.98-4.61,1.13-10.4,1.65-17.82,1.32-1.17,3.57-6.49,5.01-14,5.29,2.29-.09,2.97.65,2.55,1.98-5.02-1.14-15.75.69-14.01-3.96-2.41-.15-2.8.74-5.08.65-2.09,1.03.43,2.58,1.26,3.97-8.55,1.3-15.38,3.47-17.82,7.93-1.61.13-2.84.51-3.93.99v92.7h2880v-88.65c-1.09-.66-2.06-1.19-3.3-1.07,1.03-5.6-14.34-8.41-22.92-11.23Z"/>
  <path class="st0" d="M239.41,126.22l2.33-.32,1.49.99c5.15-.24,6.11-6.76-2.55-5.29,1.02,2.3-1.89,2.54-1.27,4.62Z"/>
  <path class="st0" d="M271.23,130.19l1.91-.32,1.91-.34c-2.38-1.16,1.51-1.93-1.27-3.31-3.15-.08-6.13-.1-7.64.67l.63.66.64.65,3.18.34-.62,1.65h1.26Z"/>
  <path class="st0" d="M345.05,143.42c2.83.53,5.17.63,11.45.65v.67l1.91.32c-.45.15-.89.29-1.33.43-2.03.87-3,2.26-3.4,3.53,1.73,1.42,4.27,3.05,7.92,2.67,1.46-1.46,1.74-3.06,2.33-4.63l1.49.99c2.43-3.56,6.46-4.37,15.27-3.3l.63-.99,1.91.32v-1.98c3.14.08,6.14.1,7.64-.66,5.17-4.65-11.52-1.93-7.64-7.93-6.34-.87-5.42,2.04-10.18,1.99-10.82-2.12-15.06,3.59-12.75,5.94-5.49-1.84-14.33-2.89-15.27,1.99Z"/>
  <path class="st0" d="M417.6,155.32l-.63-1,1.92-.32c-.77-1.38,1.56-4.35-1.29-4.63l-.63,1-1.91-.34c-2.49,1.36-4.75,5.67,2.54,5.3Z"/>
  <path class="st0" d="M423.96,113.66c-3.14-3.44-7.76-6.11-15.27-7.27.62,3.84-2.06,5.98-8.9,5.94-6.7-2.38-7.69-7.76-1.28-10.58h-1.27v-.65c-1.84-2.44-.09-3.8-1.27-7.28,4.51-.52,9.19-.95,11.46-2.64-1.4-2.13-10.1-.49-12.74-1.98,3.77-2.02,9.32-.35,14.01-2.65-7.58-2.01-16.57-3.28-17.82-8.6-2.19.46-7.91,2.43-5.08,3.31.12-1.1,1.58,2,2.54,3.97-6.41.41-6.28,4.23-8.92,6.6-6.41-.46-6.33,2.45-11.46,2.65-2.67-.59-5.65-1.02-7.64-1.98l-.62.99-1.91.33c.4,1.55,2,2.48,1.26,4.62-8.11-.42-18.03,7.26-5.08,7.94,2.58-1.96,6.24-3.37,13.99-2.65,1.33,1.74,1.53,4.06,1.29,6.61-3.99.36-6.32,1.58-7.64,3.3,3.36.78,3.95.57,2.53,2.64.99-.15,2.52-.01,2.55-.66l.64-.99,3.82,1.98-1.91.34c-1.92.57.34.98-1.29,2.64,6.77.25,7.23-4.48,12.74-1.33-3.62,3.16,1.45,4.7,1.26,7.93l2.34-.32,1.49.99c5.88-3.34,10.1-7.99,12.72-11.24,1.49,2.43,3.95,1.85,8.92,1.33.18,1.23.83,2.2,2.54,2.64l.64-1,.64,1c4.49-1.86.69-8.02,12.72-5.95Z"/>
  <path class="st0" d="M385.79,127.54l-2.34.34-1.48-1c-2.37.09-4.25.44-5.09,1.31,3.31.28,3.84,1.98,7.64,1.99.4-.89,1.81-1.27,1.28-2.64Z"/>
  <path class="st0" d="M506.7,98.45c-4.89-.76-7.98-2.46-15.27-1.97-.41.89-1.82,1.25-1.29,2.64l.64.99-1.91.32c3.99,1.23,3.2,4.95,6.37,6.62,3.89.48,3.74-1.14,7.63-.66l.63-1,1.91.33c1.53-1.86,1.4-4.56,1.28-7.28Z"/>
  <path class="st0" d="M992.92,131.51c-3.3-1.38-4.2-3.99-6.37-5.95-1.64,1.35-6.16,1.19-5.09,3.96l1.91.34-.64.99c3.07.4,5.82.95,10.19.66Z"/>
  <path class="st0" d="M1001.83,132.17c4.06.57,3.93-1.04,6.36-1.32.23-1.44-1.04-2.11-3.82-1.98l-.64.99-.63-.99c-1.83.36-3.1,1.03-3.82,1.98l1.91.33.63.99Z"/>
  <path class="st0" d="M1008.19,95.16l1.91.33,1.92.34c1.06-.77,1.67-1.79,1.26-3.31-2.96-.29-3.4-2.92-6.35-1.32-1.48.7-.48,3.05,1.27,3.97Z"/>
  <path class="st0" d="M1054.01,78.62l-.64-.99.64-.99c-1.28,0-1.51-.54-2.55-.66-.28-1.17,1.28-3.31-2.53-2.65-3.91.66,1.46,1.77,1.27,2.65-6.28.49-7.48,3.61-10.19,5.95l.64.66-.64.66c9.22.83,12.48-1.46,14.01-4.63Z"/>
  <path class="st0" d="M1099.83,61.45c-2.26.79-7.4.11-8.9,1.31.98.14,1.47.55,1.27,1.32l2.33-.33,1.48.99c2.23-.6,4.42-1.23,3.82-3.3Z"/>
  <path class="st0" d="M1181.29,52.84c3.85-6.48,21.71,1.39,25.47-5.94-3.72-.72-4.13-3.15-3.82-5.95,2.19.04,3.27-.5,3.82-1.32-2.29.09-2.99-.66-2.55-1.98l-2.32.33-1.49-1c-5.64,4.58-10.05,11.76-24.18,9.92l1.91.33-.65.99c.46,1.97.74,4.03,3.82,4.62Z"/>
  <path class="st0" d="M1201.66,23.1c-1.51,1.43-2.64,3.03-3.81,4.63,7.67,1.87-1.43,5.12,2.53,8.59l2.34-.34,1.48,1c4.78.05,3.85-2.85,10.19-1.99,1.32,2.08.04,3.51,2.55,5.95h5.09c4.6-2.97,6.79-3.79,10.18-6.61h6.36c-.52-1.59,2.33-1.44,1.28-3.31-8.28-2.8-17.4,2.73-22.91-.65l-1.49.99-2.33-.33c-3.23,1.88-4.75-.51,0-.65l1.47-.99,2.35.33c-3.72-5.38-5.24-8.16-5.11-15.86-5.1-1.15-14.4-1.04-16.53,1.32,3.42.78,0,3.44,0,4.63,1.04,1.66,4.46,2.08,6.36,3.3Z"/>
  <path class="st0" d="M1209.93,85.56l.64.99c3.71-2.43,7.53,2.45,8.9-.66-5.45-.51,1.16-3.2-2.54-4.62-3.89-.48-4.64.67-7.63.65.9,2.03-1.31,2.41-1.28,3.97l1.91-.33Z"/>
  <path class="st0" d="M1243.67,60.12c-.24,1.86-6.06.83-5.1,3.31,1.02,2.55,6.22,2.94,8.91,4.62.41-2.87,6.99-2.54,12.73-2.64l-.64-1.22,1.91-.77c-2.7-1.71-14.99.02-17.81-3.31Z"/>
  <path class="st0" d="M1722.24,84.57c3.61-.54,3.31.93,6.38.67,2.44-6.77,14.58-4.92,22.87-7.93l10.85,1.98c-3.52-1.17-7.21-4.44-12.73-2.31l.64-1c-2.69-3.23-11.02-3.54-15.28-5.94-1.52-6.97,7.93-8.23,11.46-12.56l-2.17-.48-1.65-.85c-4.14,1.59-11.68,1.42-19.09,1.33-2.65-1.71-2.77-4.74-10.19-3.97-.74,1.38-3.16,1.89-2.55,3.97,2.12,1.1,5.15,1.73,5.09,3.97-1.51,4.28-8.19,5.88-14,7.93l.64,1.2-1.91.78c1.06,1.42,3.29,2.25,2.55,4.62,7.77,1.17,5.42-2.91,12.72-1.98-.1,4.58-11.18,3.45-10.18,8.59l1.27-.33,1.27.33c1.63-.9,5.54-.66,8.92-.66-.36,1.51.31,2.49,2.54,2.65l1.27.34,1.26.33v-.67Z"/>
  <path class="st0" d="M1689.15,90.52c2.32,2.27.65,3.61-1.27,5.3,3.88-.48,4.63.66,7.64.66,1.59-4.69,8.02-6.85,8.91-11.91l-.63-.65.63-.67c-9.5.13-6.47,6.78-15.28,7.27Z"/>
  <path class="st0" d="M1689.15,65.41c-6.61.47-3.45,5.17,2.55,4.63l-.46-1.19,1.73-.8c-.54-1.26-.45-2.84-3.82-2.64Z"/>
  <path class="st0" d="M1755.34,44.91c-7.34-.07-10.87,1.85-12.73,4.63,1.14,1.17,5.17.84,3.82,3.3l2.34-.32,1.49.99c3.39-1.99,3.44-5.7,5.09-8.6Z"/>
  <path class="st0" d="M1766.8,92.51c6.64-3.6,19.12-4.17,25.46-7.93-3.67-3.32-13.36.43-17.82-2.65-.61-2.07,1.81-2.58,2.55-3.97l-2.17-.46-1.66-.86c-6.33-.64-7.58,1.35-11.46,1.98l.64.67-.64.65c4.42,2.78,2.84,8.67,5.1,12.56Z"/>
  <path class="st0" d="M1783.34,76.64c.89-4.21,5-8.23,3.81-11.9-4.66.23-5.13,2.62-11.45,1.99-2.01,2.48,3.36,3.48-1.27,5.95,3.35-.2,4.18.91,3.83,2.64h2.53v1.32c.21-.04,2.55.05,2.55,0Z"/>
  <path class="st0" d="M1881.98,84.25l.64.99c2.92-1.14,8.21-1.03,11.46-1.99-3.17-1.44-4.98-3.59-11.46-3.31-1.06,1.44-3.29,2.26-2.54,4.63l1.9-.32Z"/>
  <path class="st0" d="M2128.28,126.88l-1.92-.77.64-1.2c-3.16-.58-9.87-1.3-12.73,0-1.98,4.32,6.81,3.07,6.36,6.6,2.5.2,2.53-.89,3.82-1.32l-.63-.99,1.91.32c-1.46-2.07,2-1.6,2.54-2.64Z"/>
  <path class="st0" d="M2179.19,142.09c-.22.77-2.01.72-3.83.67-2.33.92,2.01,3.2-1.27,4.62,1.48.55,3.42.87,6.37.66l-.64-1.21,1.91-.77c-.14-1.69-.73-3.15-2.55-3.96Z"/>
  <path class="st0" d="M2231.37,128.2c-1.5-.75-4.49-.74-7.63-.65l-.63.99-1.91-.34c-.22,2.32,4.48,2.08,6.36,3.31v-.66h1.27c2.22-.6,4.9-1.48,2.54-2.65Z"/>
  <path class="st0" d="M364.14,131.51c-3.05.26.72-3.01-3.82-1.99-1.66,1.99,6.99,3.35,3.82,1.99Z"/>
  <path class="st0" d="M688.71,112.34c.07-.4.19-.78,1.28-.66,1.71.21,2.42.94,5.09.66l1.27-.32,1.29.32v-.66c2.96-.9,7.21-1.09,10.17-1.98-3.08-2.2-7.04-3.58-2.53-6.61-5.5.47-6.9,2.01-12.73.66,4.63,4-5.4,6.52-3.82,8.59Z"/>
  <path class="st0" d="M2735.41,116.98c-.12-.13-3.46,0-3.82,0-6.39-.08,5.52,1.64,3.82,0Z"/>
  <path class="st0" d="M2339.57,104.4c4-.45,5.19.08,6.36-.66-2.77.11-.58-2.35-1.28-3.31-3.46.82-5.96,1.1-7.64,1.32,2.36.11.79,2.24,2.55,2.64Z"/>
  <path class="st0" d="M1369.68,72.67c.93-1.8-2.54-1.33-2.55-2.64-1.28-3.75-2.13,3.56,2.55,2.64Z"/>
  <path class="st0" d="M2004.82,64.74c4.47.52,5.5-4.13,3.82-4.63,1.24,3.21-7.12-.25-6.37,1.33,1.9.55,1.85,2.12,2.55,3.3Z"/>
  <path class="st0" d="M1314.93,42.93c-1.29.08-2.56-2.85-3.81-.66,1.83-.34,3.11,2.58,3.81.66Z"/>
  <path class="st0" d="M908.91,159.27c.91,1.96,1.46,4.09,3.82,5.29h5.08c4.42-2.99-4.77-6.74-8.9-5.29Z"/>
  <path class="st0" d="M320.23,143.42l6.36.99c-1.98-.54-3.95-1.21-6.36-.99Z"/>
  <path class="st0" d="M691.9,122.26l-2.55.33c.98-.08,1.95-.22,2.55-.33Z"/>
  <path class="st0" d="M2079.23,112.99c-1.9-.95-3.78-2.16-6.33-2.63l6.37,6.28c-.01-1.21.04-2.43-.04-3.65Z"/>
  <path class="st0" d="M233.67,121.26l5.1-.65c-1.75-.01-3.63.15-5.1.65Z"/>
  <path class="st0" d="M869.47,115.98c.41.33.99.77,1.9,1l-1.9-1Z"/>
  <path class="st0" d="M724.35,109.04c1.43.53,3.67.82,5.74.99l-5.74-.99Z"/>
  <path class="st0" d="M1971.09,94.82l2.8,1.19c-.79-.39-1.54-.67-2.8-1.19Z"/>
  <path class="st0" d="M2539.4,97.8c-.77-.25-1.69-.57-2.55-.66l2.55.66Z"/>
  <path class="st0" d="M2351.66,101.11l-7-2.65c2.18,1.13,3.3,2.94,7,2.65Z"/>
  <path class="st0" d="M2365.24,93.72c2.24.7,3.25,1.31,5.51,1.44l-5.51-1.44Z"/>
  <path class="st0" d="M932.47,92.84c.48-.67,1.11-1.15,1.27-1.99l-1.27,1.99Z"/>
  <path class="st0" d="M667.71,92.51h2.55c-.59-.06-1.57.01-2.55,0Z"/>
  <path class="st0" d="M311.29,89.48l3.84-.6c-1.38.02-2.59.33-3.84.6Z"/>
  <path class="st0" d="M324.05,88.87c3.41-.25,7.05-.57,10.18-1.33l-10.18,1.33Z"/>
  <path class="st0" d="M849.72,76.98c2.36-.46,4.28-1.31,6.38-1.98l-6.38,1.98Z"/>
  <path class="st0" d="M285.86,73.66c.64,1.21.49,2.05,1.28,2.66l-1.28-2.66Z"/>
  <path class="st0" d="M938.82,73.01l-6.35.33c2.1.46,4.44.33,6.35-.33Z"/>
  <path class="st0" d="M1106.41,49.65l-12.31,6.39c5.5-1.17,9.88-3.64,12.31-6.39Z"/>
  <path class="st0" d="M1081.74,59.21l-3.16,2.42c.91-.62,1.95-1.3,3.16-2.42Z"/>
  <path class="st0" d="M1683.43,55.16l2.72-3.3c-1.23,1.04-2.93,1.96-2.72,3.3Z"/>
  <path class="st0" d="M1409.77,42.26l10.32,3.28c-3.25-1.31-5.21-4.55-10.32-3.28Z"/>
  <path class="st0" d="M1092.2,40.62l-3.83,3.3c1.55-.99,3.85-1.89,3.83-3.3Z"/>
  <path class="st0" d="M1130.39,36.32l1.9,2.31c-.03-.95-.49-1.69-1.9-2.31Z"/>
  <path class="st0" d="M1159.2,33.54l13.82.14c-4.39-1.6-9.12-1.31-13.82-.14Z"/>
  <path class="st0" d="M1296.48,20.12c1.23.31,2.54.34,3.86.41l-3.86-.41Z"/>
  <path class="st0" d="M257.22,133.49l-1.48-2.09c-.47.63.7,1.52,1.48,2.09Z"/>
  <path class="st0" d="M290.96,116.64l1.26,3.31c1.18-1.14.48-2.48-1.26-3.31Z"/>
  <path class="st0" d="M365.77,152.69c-.78-.39-2.18-.73-4.16-1l-.64,5.28c3.91.39,6.49-2.63,4.8-4.28Z"/>
  <path class="st0" d="M416.97,150.35l-6.37-5.3c1.25,2.07,3.44,3.7,6.37,5.3Z"/>
  <path class="st0" d="M359.69,93.5c-.74-.54-1.86-.74-2.97-.92l2.97.92Z"/>
  <path class="st0" d="M356.73,92.58l-3.4-1.06c.8.66,2.1.85,3.4,1.06Z"/>
  <path class="st0" d="M397.24,101.76c3.05.04,5.95-.5,8.95-.92l-8.95.92Z"/>
  <path class="st0" d="M411.24,122.26l-.64-3.64c.24,1.2-.61,2.55.64,3.64Z"/>
  <path class="st0" d="M495.87,147.05l-3.82-.66c1.01.32,2.04.41,3.82.66Z"/>
  <path class="st0" d="M493.34,112.67l8.05-.43c-2.62-.21-5.59-.39-8.05.43Z"/>
  <path class="st0" d="M490.79,100.11c-.94-.32-2-.32-3.08-.32l3.08.32Z"/>
  <path class="st0" d="M487.72,99.79l-3.3-.34c.97.36,2.13.35,3.3.34Z"/>
  <path class="st0" d="M503.51,105.4l1.91,1.98c-.27-.75-.65-1.17-1.91-1.98Z"/>
  <path class="st0" d="M674.71,125.89v3.31c.11-1.16,1.45-2.21,0-3.31Z"/>
  <path class="st0" d="M917.19,148.37l-3.82,2.87c1.98-.62,3.33-1.97,3.82-2.87Z"/>
  <path class="st0" d="M979.55,131.18l3.82-1.31c-1.56.44-2.93.85-3.82,1.31Z"/>
  <path class="st0" d="M1065.68,69.04l1.7-1.61c-.82.47-1.53.96-1.7,1.61Z"/>
  <path class="st0" d="M1070.56,64.42l-3.18,3.01c1.58-.9,3.58-1.65,3.18-3.01Z"/>
  <path class="st0" d="M1094.53,63.75l-3.98,6.09c3.36-1.62,3.51-3.9,3.98-6.09Z"/>
  <path class="st0" d="M1145.75,53.83h-3.27c1.06.25,2.15.15,3.27,0Z"/>
  <path class="st0" d="M1145.75,53.83h5.64c-1.87-.69-3.77-.26-5.64,0Z"/>
  <path class="st0" d="M1170.48,48.55l7.64-1.32c-2.7.26-5.23.56-7.64,1.32Z"/>
  <path class="st0" d="M1208.66,88.87c.52-.71.64-1.43.83-2.14l-.83,2.14Z"/>
  <path class="st0" d="M1259.57,64.19l5.52,3.53c-1.07-1.4-2.91-2.81-5.52-3.53Z"/>
  <path class="st0" d="M1365.22,75.21l3.18.11c-.82-.13-2.06-.16-3.18-.11Z"/>
  <path class="st0" d="M1447.95,84.57c-2.55.39-4.45,1.39-6.36,2.32l6.36-2.32Z"/>
  <path class="st0" d="M1566.33,75.65l5.06.66c-1.48-.54-3.03-1.05-5.06-.66Z"/>
  <path class="st0" d="M1576.51,76.98l-5.11-.67c1.62.59,3.15,1.19,5.11.67Z"/>
  <path class="st0" d="M1569.51,81.28l-5.54-.52c1.85.44,4.1.73,5.54.52Z"/>
  <path class="st0" d="M1590.51,82.93l6.37-1.33c-2.06.51-4.55.52-6.37,1.33Z"/>
  <path class="st0" d="M1659.01,103.43c1.37,0,2.74,0,4.05-.23l-4.05.23Z"/>
  <path class="st0" d="M1655.43,103.64l3.58-.21c-1.22,0-2.42.01-3.58.21Z"/>
  <path class="st0" d="M1706.97,82.26l-3.18,1.65c1.08-.47,2.5-.96,3.18-1.65Z"/>
  <path class="st0" d="M1702.52,70.58l-11.28-1.73c3.42,1.19,7.22,1.64,11.28,1.73Z"/>
  <path class="st0" d="M1748.76,52.52l-4.51,4.48c1.99-1.33,4.05-2.76,4.51-4.48Z"/>
  <path class="st0" d="M1774.81,77.5c1.93-.77,4.32-1.22,5.98-2.18l-5.98,2.18Z"/>
  <path class="st0" d="M1721.61,86.89l-.64-1.98c-.04.65.29,1.32.64,1.98Z"/>
  <path class="st0" d="M1712.7,135.14l2.56-.66c-.86.08-1.7.37-2.56.66Z"/>
  <path class="st0" d="M1878.16,86.23l2.46-1.28c-.82.32-1.65.54-2.46,1.28Z"/>
  <path class="st0" d="M1898.71,109.84l3,.86c-.7-.3-1.99-.6-3-.86Z"/>
  <path class="st0" d="M2127.64,130.19l-3.82-.99c1.53.59,3.06.9,3.82.99Z"/>
  <path class="st0" d="M2229.47,132.17l-1.91-1.32c.68.48,1.06,1.17,1.91,1.32Z"/>
  <path class="st0" d="M2218.2,125.04l4.91,3.5c-.82-1.5-2.88-2.48-4.91-3.5Z"/>
  <path class="st0" d="M2604.95,123.24l-1.28,1.33c.58-.44,1.12-.88,1.28-1.33Z"/>
  <path class="st0" d="M2793.97,128.54l-.21,1.54c.11-.41.22-.85.21-1.54Z"/>
  <path class="st0" d="M2788.24,122.59c-1.27-.18-2.55-.35-3.82-.33l3.82.33Z"/>
  <path class="st0" d="M463.85,146.82c-.9-.29-2.4-.33-3.61-.44l4.24,1.33c-.22-.3-.42-.6-.63-.89Z"/>
  <path class="st0" d="M1050.84,90.2l-1.29-2.65c-.06.45.56,1.61,1.29,2.65Z"/>
  <path class="st0" d="M1035.56,83.58l5.09-.99c-.95.2-3.06.23-5.09.99Z"/>
  <path class="st0" d="M922.27,164.23l-6.36,2.64c1.24-.04,2.52-.06,3.71-.2,1.33-.64,2.14-1.54,2.65-2.44Z"/>
  <path class="st0" d="M698.59,114.65c1.5-1.34-2.82-1.45-2.25-2.64l-2.53,5.61c.69-1.43,2.41-2.25,4.78-2.98Z"/>
  <path class="st0" d="M1607.05,50.54l-1.27-.67c.27.3.57.59,1.27.67Z"/>
</svg>